<?xml version="1.0" encoding="utf-8"?>
<svg xmlns="http://www.w3.org/2000/svg" viewBox="0 0 500 500" xmlns:bx="https://boxy-svg.com" width="500px" height="500px"><defs><filter id="c" x="73.683" y="53.416" width="19.126" height="9.973" filterUnits="userSpaceOnUse" color-interpolation-filters="sRGB"><feFlood flood-opacity="0" result="BackgroundImageFix"/><feBlend in="SourceGraphic" in2="BackgroundImageFix" result="shape"/><feGaussianBlur stdDeviation=".234" result="effect1_foregroundBlur_1081_1678"/></filter><filter id="e" x="79.595" y="59.416" width="13.996" height="17.273" filterUnits="userSpaceOnUse" color-interpolation-filters="sRGB"><feFlood flood-opacity="0" result="BackgroundImageFix"/><feBlend in="SourceGraphic" in2="BackgroundImageFix" result="shape"/><feGaussianBlur stdDeviation=".351" result="effect1_foregroundBlur_1081_1678"/></filter><filter id="g" x="75.151" y="51.078" width="14.75" height="4.431" filterUnits="userSpaceOnUse" color-interpolation-filters="sRGB"><feFlood flood-opacity="0" result="BackgroundImageFix"/><feBlend in="SourceGraphic" in2="BackgroundImageFix" result="shape"/><feGaussianBlur stdDeviation=".176" result="effect1_foregroundBlur_1081_1678"/></filter><filter id="h" x="84.363" y="67.118" width="9.925" height="11.754" filterUnits="userSpaceOnUse" color-interpolation-filters="sRGB"><feFlood flood-opacity="0" result="BackgroundImageFix"/><feBlend in="SourceGraphic" in2="BackgroundImageFix" result="shape"/><feGaussianBlur stdDeviation=".176" result="effect1_foregroundBlur_1081_1678"/></filter><filter id="i" x="88.773" y="51.36" width="5.55" height="4.563" filterUnits="userSpaceOnUse" color-interpolation-filters="sRGB"><feFlood flood-opacity="0" result="BackgroundImageFix"/><feBlend in="SourceGraphic" in2="BackgroundImageFix" result="shape"/><feGaussianBlur stdDeviation=".234" result="effect1_foregroundBlur_1081_1678"/></filter><filter id="j" x="88.905" y="50.465" width="3.874" height="4.977" filterUnits="userSpaceOnUse" color-interpolation-filters="sRGB"><feFlood flood-opacity="0" result="BackgroundImageFix"/><feBlend in="SourceGraphic" in2="BackgroundImageFix" result="shape"/><feGaussianBlur stdDeviation=".059" result="effect1_foregroundBlur_1081_1678"/></filter><filter id="k" x="90.309" y="51.488" width="3.63" height="5.548" filterUnits="userSpaceOnUse" color-interpolation-filters="sRGB"><feFlood flood-opacity="0" result="BackgroundImageFix"/><feBlend in="SourceGraphic" in2="BackgroundImageFix" result="shape"/><feGaussianBlur stdDeviation=".176" result="effect1_foregroundBlur_1081_1678"/></filter><filter id="n" x="93.211" y="67.586" width="6.043" height="1.649" filterUnits="userSpaceOnUse" color-interpolation-filters="sRGB"><feFlood flood-opacity="0" result="BackgroundImageFix"/><feBlend in="SourceGraphic" in2="BackgroundImageFix" result="shape"/><feGaussianBlur stdDeviation=".059" result="effect1_foregroundBlur_1081_1678"/></filter><filter id="p" x="92.982" y="65.918" width=".983" height="4.606" filterUnits="userSpaceOnUse" color-interpolation-filters="sRGB"><feFlood flood-opacity="0" result="BackgroundImageFix"/><feBlend in="SourceGraphic" in2="BackgroundImageFix" result="shape"/><feGaussianBlur stdDeviation=".117" result="effect1_foregroundBlur_1081_1678"/></filter><filter id="q" x="93.41" y="65.18" width=".526" height="1.458" filterUnits="userSpaceOnUse" color-interpolation-filters="sRGB"><feFlood flood-opacity="0" result="BackgroundImageFix"/><feBlend in="SourceGraphic" in2="BackgroundImageFix" result="shape"/><feGaussianBlur stdDeviation=".07" result="effect1_foregroundBlur_1081_1678"/></filter><filter id="s" x="86.936" y="53.14" width="3.347" height="3.494" filterUnits="userSpaceOnUse" color-interpolation-filters="sRGB"><feFlood flood-opacity="0" result="BackgroundImageFix"/><feBlend in="SourceGraphic" in2="BackgroundImageFix" result="shape"/><feGaussianBlur stdDeviation=".117" result="effect1_foregroundBlur_1081_1678"/></filter><filter id="t" x="89.686" y="55.962" width="1.158" height="1.109" filterUnits="userSpaceOnUse" color-interpolation-filters="sRGB"><feFlood flood-opacity="0" result="BackgroundImageFix"/><feBlend in="SourceGraphic" in2="BackgroundImageFix" result="shape"/><feGaussianBlur stdDeviation=".07" result="effect1_foregroundBlur_1081_1678"/></filter><filter id="u" x="93.012" y="66.772" width="6.567" height="2.548" filterUnits="userSpaceOnUse" color-interpolation-filters="sRGB"><feFlood flood-opacity="0" result="BackgroundImageFix"/><feBlend in="SourceGraphic" in2="BackgroundImageFix" result="shape"/><feGaussianBlur stdDeviation=".234" result="effect1_foregroundBlur_1081_1678"/></filter><filter id="v" x="93.478" y="65.344" width="6.43" height="3.471" filterUnits="userSpaceOnUse" color-interpolation-filters="sRGB"><feFlood flood-opacity="0" result="BackgroundImageFix"/><feBlend in="SourceGraphic" in2="BackgroundImageFix" result="shape"/><feGaussianBlur stdDeviation=".176" result="effect1_foregroundBlur_1081_1678"/></filter><filter id="D" x="83.414" y="56.087" width="2.581" height="1.054" filterUnits="userSpaceOnUse" color-interpolation-filters="sRGB"><feFlood flood-opacity="0" result="BackgroundImageFix"/><feBlend in="SourceGraphic" in2="BackgroundImageFix" result="shape"/><feGaussianBlur stdDeviation=".012" result="effect1_foregroundBlur_1081_1678"/></filter><filter id="E" x="85.503" y="56.975" width=".555" height="1.327" filterUnits="userSpaceOnUse" color-interpolation-filters="sRGB"><feFlood flood-opacity="0" result="BackgroundImageFix"/><feBlend in="SourceGraphic" in2="BackgroundImageFix" result="shape"/><feGaussianBlur stdDeviation=".003" result="effect1_foregroundBlur_1081_1678"/></filter><filter id="I" x="88.343" y="68.266" width="1.62" height="2.185" filterUnits="userSpaceOnUse" color-interpolation-filters="sRGB"><feFlood flood-opacity="0" result="BackgroundImageFix"/><feBlend in="SourceGraphic" in2="BackgroundImageFix" result="shape"/><feGaussianBlur stdDeviation=".012" result="effect1_foregroundBlur_1081_1678"/></filter><linearGradient id="a" x1="89.897" y1="100.561" x2="86.04" y2="98.374" gradientUnits="userSpaceOnUse" gradientTransform="matrix(4.503998, 0, 0, 4.711313, -37.593752, -45.265993)"><stop stop-color="#4285F4"/><stop offset="1" stop-color="#034ECA"/></linearGradient><linearGradient id="d" x1="84.808" y1="54.191" x2="83.586" y2="58.523" gradientUnits="userSpaceOnUse"><stop stop-color="#A8F0B9"/><stop offset="1" stop-color="#ADEEBC" stop-opacity="0"/></linearGradient><linearGradient id="f" x1="90.857" y1="71.333" x2="87.186" y2="68.728" gradientUnits="userSpaceOnUse"><stop stop-color="#A8F0B9"/><stop offset="1" stop-color="#ADEEBC" stop-opacity="0"/></linearGradient><linearGradient id="F" x1="86.212" y1="56.951" x2="85.191" y2="57.364" gradientUnits="userSpaceOnUse"><stop stop-color="#E2DDE2"/><stop offset="1" stop-color="#E2DDE2" stop-opacity="0"/></linearGradient><linearGradient id="H" x1="89.776" y1="68.398" x2="88.921" y2="68.7" gradientUnits="userSpaceOnUse"><stop stop-color="#373637"/><stop offset="1" stop-color="#373637" stop-opacity="0"/></linearGradient><linearGradient id="O" x1="92.331" y1="61.164" x2="88.086" y2="62.662" gradientUnits="userSpaceOnUse"><stop stop-color="#A8F0B9"/><stop offset="1" stop-color="#ADEEBC" stop-opacity="0"/></linearGradient><linearGradient id="Q" x1="92.331" y1="61.164" x2="88.086" y2="62.662" gradientUnits="userSpaceOnUse"><stop stop-color="#A8F0B9"/><stop offset="1" stop-color="#ADEEBC" stop-opacity="0"/></linearGradient><linearGradient id="R" x1="60.209" y1="75.081" x2="78.764" y2="73.616" gradientUnits="userSpaceOnUse" gradientTransform="matrix(4.503998, 0, 0, 4.711313, -37.593752, -45.265993)"><stop stop-color="#4285F4"/><stop offset="0.703" stop-color="#044FCB"/></linearGradient><linearGradient id="S" x1="39.018" y1="99.585" x2="43.018" y2="97.223" gradientUnits="userSpaceOnUse" gradientTransform="matrix(4.503998, 0, 0, 4.711313, -37.593752, -45.265993)"><stop stop-color="#4285F4"/><stop offset="1" stop-color="#034ECA"/></linearGradient><linearGradient id="T" x1="57.372" y1="65.999" x2="55.24" y2="65.26" gradientUnits="userSpaceOnUse" gradientTransform="matrix(4.503998, 0, 0, 4.711313, -37.593752, -45.265993)"><stop stop-color="#73A7FF"/><stop offset="1" stop-color="#5893F6" stop-opacity="0"/></linearGradient><linearGradient id="U" x1="64.115" y1="26.802" x2="67.468" y2="29.818" gradientUnits="userSpaceOnUse" gradientTransform="matrix(4.503998, 0, 0, 4.711313, -37.593752, -45.265993)"><stop stop-color="#4285F4"/><stop offset="1" stop-color="#034ECA"/></linearGradient><linearGradient id="W" x1="67.866" y1="46.531" x2="78.004" y2="67.72" gradientUnits="userSpaceOnUse" gradientTransform="matrix(4.503998, 0, 0, 4.711313, -37.593752, -45.265993)"><stop stop-color="#034DC9"/><stop offset="1" stop-color="#4285F4"/></linearGradient><linearGradient id="X" x1="43.333" y1="63.99" x2="48.675" y2="65.823" gradientUnits="userSpaceOnUse" gradientTransform="matrix(4.503998, 0, 0, 4.711313, -37.593752, -45.265993)"><stop stop-color="#9BC0FF"/><stop offset="1" stop-color="#5893F6" stop-opacity="0"/></linearGradient><radialGradient id="l" cx="0" cy="0" r="1" gradientUnits="userSpaceOnUse" gradientTransform="matrix(-.53643 -.73571 .53314 -.38873 92.673 52.02)"><stop stop-color="#fff"/><stop offset="0.948" stop-color="#fff" stop-opacity="0"/></radialGradient><radialGradient id="m" cx="0" cy="0" r="1" gradientUnits="userSpaceOnUse" gradientTransform="rotate(-126.097 66.088 8.52) scale(.91051 .65981)"><stop stop-color="#fff"/><stop offset="0.948" stop-color="#fff" stop-opacity="0"/></radialGradient><radialGradient id="w" cx="0" cy="0" r="1" gradientUnits="userSpaceOnUse" gradientTransform="matrix(-1.46389, -0.675367, 1.175903, -2.788956, 348.561181, 227.292855)"><stop stop-color="#93E19F"/><stop offset="1" stop-color="#93E19F" stop-opacity="0"/></radialGradient><radialGradient id="x" cx="0" cy="0" r="1" gradientUnits="userSpaceOnUse" gradientTransform="matrix(-0.73418, 1.486198, -2.587801, -1.398755, 364.40513, 274.466949)"><stop stop-color="#93E19F"/><stop offset="1" stop-color="#93E19F" stop-opacity="0"/></radialGradient><radialGradient id="Y" cx="0" cy="0" r="1" gradientUnits="userSpaceOnUse" gradientTransform="matrix(-5.309043, 5.650796, -3.76354, -3.868929, 245.662732, 72.771311)"><stop stop-color="#fff"/><stop offset="0.948" stop-color="#fff" stop-opacity="0"/></radialGradient><radialGradient id="Z" cx="0" cy="0" r="1" gradientUnits="userSpaceOnUse" gradientTransform="matrix(-11.651618, 21.445896, -11.20086, -6.658546, 219.935954, 170.983403)"><stop stop-color="#fff"/><stop offset="0.948" stop-color="#fff" stop-opacity="0"/></radialGradient><bx:export><bx:file format="png"/><bx:file format="webp"/><bx:file format="svg"/><bx:file format="html"/><bx:file format="pdf"><bx:page/></bx:file></bx:export><filter id="drop-shadow-filter-0" bx:preset="drop-shadow 1 -1 1 9 0.5 #0000007f" color-interpolation-filters="sRGB" x="-50%" y="-50%" width="200%" height="200%"><feGaussianBlur in="SourceAlpha" stdDeviation="9"/><feOffset dx="-1" dy="1"/><feComponentTransfer result="offsetblur"><feFuncA id="spread-ctrl" type="linear" slope="1"/></feComponentTransfer><feFlood flood-color="#0000007f"/><feComposite in2="offsetblur" operator="in"/><feMerge><feMergeNode/><feMergeNode in="SourceGraphic"/></feMerge></filter><filter id="drop-shadow-filter-1" bx:preset="drop-shadow 1 -1 1 6 0.5 #0008" color-interpolation-filters="sRGB" x="-50%" y="-50%" width="200%" height="200%"><feGaussianBlur in="SourceAlpha" stdDeviation="6"/><feOffset dx="-1" dy="1"/><feComponentTransfer result="offsetblur"><feFuncA id="spread-ctrl" type="linear" slope="1"/></feComponentTransfer><feFlood flood-color="#0008"/><feComposite in2="offsetblur" operator="in"/><feMerge><feMergeNode/><feMergeNode in="SourceGraphic"/></feMerge></filter><linearGradient id="gradient-0" bx:pinned="true"/></defs><path d="M 371.58 421.236 C 373.116 426.292 368.846 431.187 363.892 430.051 C 362.019 429.624 360.419 428.361 359.51 426.592 L 343.646 395.791 C 340.111 388.917 345.016 380.621 352.474 380.855 C 356.582 380.988 360.163 383.81 361.415 387.899 L 371.58 421.236 Z" fill="#034ECA" style="shape-rendering: geometricprecision; will-change: filter, mix-blend-mode, opacity, transform, content; filter: url(&quot;#drop-shadow-filter-0&quot;);"/><path style="stroke-dashoffset: -10px; stroke-dasharray: 2, 2; filter: url(&quot;#drop-shadow-filter-0&quot;); fill: rgb(255, 255, 255); fill-rule: evenodd; transform-origin: 250px 245.724px; stroke: rgba(205, 204, 204, 0.627); stroke-miterlimit: 5.85; paint-order: fill; mix-blend-mode: multiply; shape-rendering: geometricprecision; stroke-opacity: 0.99; stroke-linecap: square; will-change: filter, mix-blend-mode, opacity, transform, content;" id="object-0" d="M 122.107 8.827 H 388.067 A 100 100 0 0 1 488.067 108.827 V 382.621 A 100 100 0 0 1 388.067 482.621 H 122.107 A 110 110 0 0 1 12.107 372.621 V 118.827 A 110 110 0 0 1 122.107 8.827 Z" bx:shape="rect 12.107 8.827 475.96 473.794 110 100 100 110 1@b9ea5751" transform="matrix(1, 0, 0.000001, 1, 0.00024, -0.000006)"/><path d="M 371.58 421.236 C 373.116 426.292 368.846 431.187 363.892 430.051 C 362.019 429.624 360.419 428.361 359.51 426.592 L 343.646 395.791 C 340.111 388.917 345.016 380.621 352.474 380.855 C 356.582 380.988 360.163 383.81 361.415 387.899 L 371.58 421.236 Z" fill="url(#a)" style="shape-rendering: geometricprecision; will-change: filter, mix-blend-mode, opacity, transform, content; filter: url(&quot;#drop-shadow-filter-0&quot;);"/><mask id="b" style="mask-type:alpha" maskUnits="userSpaceOnUse" x="78" y="51" width="21" height="26"><path d="M88.095 75.55a12.443 12.443 0 0 0 3.382-3.272 12.496 12.496 0 0 0 1.42-2.646c.234-.599.422-1.217.562-1.847l.028.005 1.478.278a2295.78 2295.78 0 0 0 2.48.467 1.146 1.146 0 0 0 1.32-1.41 1.156 1.156 0 0 0-.163-.358 1.144 1.144 0 0 0-.733-.478c-.345-.066-.691-.13-1.037-.195l-1.443-.272-1.478-.279-.162-.03.004-.122c.037-1.48-.19-2.992-.713-4.472l-.044-.12a12.483 12.483 0 0 0-2.274-3.881l.1-.117.975-1.143.953-1.116.685-.802a1.14 1.14 0 0 0-.139-1.62 1.14 1.14 0 0 0-1.604.137l-.684.802-.953 1.116-.976 1.143-.008.01a12.59 12.59 0 0 0-6.087-2.635 12.477 12.477 0 0 0-4.617.207l8.288 23.458a12.56 12.56 0 0 0 1.44-.809Z" fill="#fff"/></mask><g mask="url(#b)" transform="matrix(4.503999, 0, 0, 4.711312, -37.593724, -45.265946)" style="filter: url(&quot;#drop-shadow-filter-1&quot;); will-change: filter, mix-blend-mode, opacity, transform, content;"><path d="m100.745 71.537-8.84-25.05-14.093 4.973 8.84 25.05 14.093-4.973Z" fill="#4FAF53" style="shape-rendering: geometricprecision; will-change: filter, mix-blend-mode, opacity, transform, content; filter: url(&quot;#drop-shadow-filter-0&quot;);"/><g opacity=".8" filter="url(#c)"><path d="M92.34 62.13c-.875 3.1-3.533-3.82-8.313-5.169-4.78-1.349-10.664 3.16-9.789.06 1.562-2.275 5.744-4.013 10.524-2.664 4.78 1.35 7.62 5.39 7.578 7.773Z" fill="url(#d)" fill-opacity=".3" style="shape-rendering: geometricprecision; will-change: filter, mix-blend-mode, opacity, transform, content; filter: url(&quot;#drop-shadow-filter-0&quot;);"/></g><g opacity=".7" filter="url(#e)"><path d="M91.738 60.426c-2.627-1.865-.354 5.19-3.228 9.24-2.875 4.05-10.286 4.233-7.659 6.097 2.644.791 6.99-.48 9.865-4.53 2.875-4.05 2.55-8.978 1.022-10.807Z" fill="url(#f)" fill-opacity=".4" style="shape-rendering: geometricprecision; will-change: filter, mix-blend-mode, opacity, transform, content; filter: url(&quot;#drop-shadow-filter-0&quot;);"/></g><g opacity=".6" filter="url(#g)"><path d="M81.522 51.431c-3.337.105-6.032.504-6.02.891.013.387 2.727.616 6.064.51 3.337-.104 7.996 2.675 7.984 2.288-.012-.387-4.691-3.793-8.028-3.689Z" fill="#8BD8A0" style="shape-rendering: geometricprecision; will-change: filter, mix-blend-mode, opacity, transform, content; filter: url(&quot;#drop-shadow-filter-0&quot;);"/></g><g opacity=".5" filter="url(#h)"><path d="M89.978 75.393c-2.663 2.013-5.012 3.394-5.245 3.085-.234-.31 1.736-2.191 4.4-4.204 2.664-2.012 4.547-7.1 4.78-6.791.234.309-1.271 5.898-3.935 7.91Z" fill="#8BD8A0" style="shape-rendering: geometricprecision; will-change: filter, mix-blend-mode, opacity, transform, content; filter: url(&quot;#drop-shadow-filter-0&quot;);"/></g><g opacity=".7" filter="url(#i)"><path d="M91.21 53.386c-1.219 1.492-1.812 2.166-1.944 2.058-.132-.107.248-.956 1.466-2.448.75-1.87 2.98-.96 3.113-.852.132.108-1.076-.887-2.636 1.242Z" fill="#0D652D" style="shape-rendering: geometricprecision; will-change: filter, mix-blend-mode, opacity, transform, content; filter: url(&quot;#drop-shadow-filter-0&quot;);"/></g><g opacity=".1" filter="url(#j)"><path d="M89.034 55.32c.113.086 1.015-.903 2.013-2.21 1-1.306 1.716-2.436 1.603-2.523-.114-.087-1.015.902-2.014 2.21-.999 1.306-1.716 2.436-1.602 2.522Z" fill="#000" style="shape-rendering: geometricprecision; will-change: filter, mix-blend-mode, opacity, transform, content; filter: url(&quot;#drop-shadow-filter-0&quot;);"/></g><g opacity=".3" filter="url(#k)"><path d="M92.414 54.285c-1.274 1.561-1.847 2.305-1.742 2.392.106.086.85-.519 2.124-2.08 1.831-1.717-.068-2.979-.245-2.726-.519.555 1.692.348-.137 2.414Z" fill="#fff" style="shape-rendering: geometricprecision; will-change: filter, mix-blend-mode, opacity, transform, content; filter: url(&quot;#drop-shadow-filter-0&quot;);"/></g><path d="M91.83 50.843c-.553.395-.624 1.243-.158 1.894.465.65 1.29.857 1.844.462.552-.396.623-1.244.158-1.895-.465-.65-1.291-.857-1.844-.461Z" fill="url(#l)" fill-opacity=".9" style="shape-rendering: geometricprecision; will-change: filter, mix-blend-mode, opacity, transform, content; filter: url(&quot;#drop-shadow-filter-0&quot;);"/><path d="M97.296 65.762c-.552.396-.623 1.244-.158 1.895.465.65 1.291.857 1.844.462.553-.396.624-1.244.158-1.895-.465-.65-1.29-.857-1.844-.462Z" fill="url(#m)" fill-opacity=".9" style="shape-rendering: geometricprecision; will-change: filter, mix-blend-mode, opacity, transform, content; filter: url(&quot;#drop-shadow-filter-0&quot;);"/><g opacity=".1" filter="url(#n)"><path d="M93.33 67.75c.03-.14 1.356.043 2.96.408 1.604.365 2.878.773 2.846.913-.031.14-1.357-.043-2.96-.408-1.604-.365-2.879-.773-2.847-.913Z" fill="#000" style="shape-rendering: geometricprecision; will-change: filter, mix-blend-mode, opacity, transform, content; filter: url(&quot;#drop-shadow-filter-0&quot;);"/></g><mask id="o" style="mask-type:alpha" maskUnits="userSpaceOnUse" x="93" y="65" width="3" height="5"><path d="M93.37 67.938c.15-.678.298-2.157.353-2.812l1.453-.093-.18 4.167c-.605-.138-1.776-.584-1.626-1.262Z" fill="#000"/></mask><g mask="url(#o)"><g style="mix-blend-mode:multiply" opacity=".3" filter="url(#p)"><path d="M93.702 68.237c.07-1.142.01-2.076-.133-2.084-.142-.01-.225.868-.295 2.01-.07 1.143-.099 2.118.044 2.127.142.009.314-.91.384-2.053Z" fill="#0D652D" style="shape-rendering: geometricprecision; will-change: filter, mix-blend-mode, opacity, transform, content; filter: url(&quot;#drop-shadow-filter-0&quot;);"/></g><g style="mix-blend-mode:screen" opacity=".3" filter="url(#q)"><path d="M93.776 65.922c.039-.325.019-.594-.045-.602-.063-.007-.106.241-.144.566-.039.325-.058.604.005.611.064.008.146-.25.184-.575Z" fill="#81C995" style="shape-rendering: geometricprecision; will-change: filter, mix-blend-mode, opacity, transform, content; filter: url(&quot;#drop-shadow-filter-0&quot;);"/></g></g><mask id="r" style="mask-type:alpha" maskUnits="userSpaceOnUse" x="88" y="53" width="4" height="5"><path d="M88.735 55.151c.552.422 1.617 1.46 2.08 1.926l1.172-.864-2.82-3.074c-.374.495-.983 1.59-.432 2.012Z" fill="#000"/></mask><g mask="url(#r)"><g style="mix-blend-mode:multiply" opacity=".3" filter="url(#s)"><path d="M88.797 54.71c.788.829 1.343 1.582 1.24 1.68-.104.099-.732-.52-1.52-1.35-.79-.83-1.44-1.556-1.336-1.655.104-.098.827.495 1.616 1.324Z" fill="#0D652D" style="shape-rendering: geometricprecision; will-change: filter, mix-blend-mode, opacity, transform, content; filter: url(&quot;#drop-shadow-filter-0&quot;);"/></g><g style="mix-blend-mode:screen" opacity=".3" filter="url(#t)"><path d="M90.344 56.432c.238.224.396.444.352.49-.044.047-.236-.116-.475-.34-.238-.224-.432-.425-.389-.471.044-.047.273.097.512.321Z" fill="#81C995" style="shape-rendering: geometricprecision; will-change: filter, mix-blend-mode, opacity, transform, content; filter: url(&quot;#drop-shadow-filter-0&quot;);"/></g></g><g opacity=".7" filter="url(#u)"><path d="M96.294 68.007c-1.894-.354-2.782-.485-2.813-.318-.032.168.806.57 2.7.924 1.78.943 2.896-1.192 2.927-1.36.031-.167-.249 1.372-2.814.754Z" fill="#0D652D" style="shape-rendering: geometricprecision; will-change: filter, mix-blend-mode, opacity, transform, content; filter: url(&quot;#drop-shadow-filter-0&quot;);"/></g><g opacity=".3" filter="url(#v)"><path d="M96.623 66.49c-1.927-.36-2.82-.555-2.794-.695.027-.14.962-.174 2.889.185 3.152.072 3.521 2.29 1.88 2.484-.72-.05.683-1.597-1.975-1.975Z" fill="#fff" style="shape-rendering: geometricprecision; will-change: filter, mix-blend-mode, opacity, transform, content; filter: url(&quot;#drop-shadow-filter-0&quot;);"/></g></g><path d="M 346.835 226.55 C 346.123 228.369 346.321 230.17 347.272 230.578 C 348.227 230.984 349.574 229.844 350.285 228.029 C 350.996 226.216 350.798 224.412 349.848 224.007 C 348.894 223.597 347.547 224.736 346.835 226.55 Z" fill="url(#w)" fill-opacity=".7" style="shape-rendering: geometricprecision; will-change: filter, mix-blend-mode, opacity, transform, content; filter: url(&quot;#drop-shadow-filter-0&quot;);"/><path d="M 363.509 276.171 C 361.866 275.228 360.941 273.698 361.437 272.751 C 361.932 271.808 363.662 271.813 365.306 272.76 C 366.946 273.702 367.873 275.237 367.378 276.18 C 366.883 277.122 365.148 277.122 363.505 276.171 L 363.509 276.171 Z" fill="url(#x)" fill-opacity=".7" style="shape-rendering: geometricprecision; will-change: filter, mix-blend-mode, opacity, transform, content; filter: url(&quot;#drop-shadow-filter-0&quot;);"/><g style="mix-blend-mode: multiply; filter: url(&quot;#drop-shadow-filter-1&quot;); will-change: filter, mix-blend-mode, opacity, transform, content;" opacity=".09" transform="matrix(4.503999, 0, 0, 4.711312, -37.593724, -45.265946)"><path d="M84.336 58.813c1 .044 1.414-.52 1.495-.807.585-.95-.365-1.62-.809-1.763-.443-.143-1.196-.312-1.91.364-.712.676-.026 2.15 1.224 2.206Z" fill="#011B04" style="shape-rendering: geometricprecision; will-change: filter, mix-blend-mode, opacity, transform, content; filter: url(&quot;#drop-shadow-filter-0&quot;);"/></g><g style="mix-blend-mode: multiply; filter: url(&quot;#drop-shadow-filter-1&quot;); will-change: filter, mix-blend-mode, opacity, transform, content;" opacity=".09" transform="matrix(4.503999, 0, 0, 4.711312, -37.593724, -45.265946)"><path d="M87.562 67.997c.747-.66 1.42-.48 1.662-.307 1.048.376.732 1.49.478 1.88-.253.39-.73.993-1.705.913-.975-.08-1.368-1.66-.435-2.486Z" fill="#011B04" style="shape-rendering: geometricprecision; will-change: filter, mix-blend-mode, opacity, transform, content; filter: url(&quot;#drop-shadow-filter-0&quot;);"/></g><path d="M 357.488 285.428 C 360.009 287.407 363.915 286.441 366.207 283.261 C 368.495 280.077 368.301 275.893 365.776 273.905 C 363.249 271.925 359.343 272.891 357.054 276.072 C 354.767 279.257 354.961 283.445 357.488 285.428 Z" fill="#000" style="shape-rendering: geometricprecision; will-change: filter, mix-blend-mode, opacity, transform, content; filter: url(&quot;#drop-shadow-filter-0&quot;);"/><g transform="matrix(4.503999, 0, 0, 4.711312, -37.593724, -45.265946)" style="filter: url(&quot;#drop-shadow-filter-1&quot;); will-change: filter, mix-blend-mode, opacity, transform, content;"><path d="M84.263 58.605c.82.207 1.621-.163 1.79-.827.168-.664-.36-1.37-1.18-1.577-.82-.207-1.622.163-1.79.827-.168.664.36 1.37 1.18 1.577Z" fill="#000" style="shape-rendering: geometricprecision; will-change: filter, mix-blend-mode, opacity, transform, content; filter: url(&quot;#drop-shadow-filter-0&quot;);"/></g><g transform="matrix(4.503999, 0, 0, 4.711312, -37.593724, -45.265946)" style="filter: url(&quot;#drop-shadow-filter-1&quot;); will-change: filter, mix-blend-mode, opacity, transform, content;"><path d="M87.638 68.2c.508-.675 1.364-.889 1.912-.478.548.411.58 1.292.072 1.967-.507.675-1.363.889-1.911.478-.548-.412-.58-1.292-.073-1.967Z" fill="#000" style="shape-rendering: geometricprecision; will-change: filter, mix-blend-mode, opacity, transform, content; filter: url(&quot;#drop-shadow-filter-0&quot;);"/></g><mask id="C" style="mask-type:alpha" maskUnits="userSpaceOnUse" x="83" y="56" width="4" height="3"><path d="M84.263 58.605c.82.207 1.621-.163 1.79-.827.168-.664-.36-1.37-1.18-1.577-.82-.207-1.621.163-1.79.827-.168.663.36 1.37 1.18 1.577Z" fill="#202124"/></mask><g mask="url(#C)" transform="matrix(4.503999, 0, 0, 4.711312, -37.593724, -45.265946)" style="filter: url(&quot;#drop-shadow-filter-1&quot;); will-change: filter, mix-blend-mode, opacity, transform, content;"><g filter="url(#D)"><path d="M84.963 56.346c-.667-.24-1.287-.074-1.526.068.464-.283.969-.418 1.605-.183.35.13.622.419.783.643a.981.981 0 0 1 .067.1c.037.059.064.108.08.144-.025-.04-.047-.089-.08-.144a2.167 2.167 0 0 0-.067-.1c-.12-.154-.344-.342-.862-.528Z" fill="#D8D8D8" fill-opacity=".29" style="shape-rendering: geometricprecision; will-change: filter, mix-blend-mode, opacity, transform, content; filter: url(&quot;#drop-shadow-filter-0&quot;);"/></g><g opacity=".8" filter="url(#E)"><path d="M85.508 58.295c.67-.433.536-1.057.385-1.315.188.202.208.678.064.932-.115.204-.347.34-.449.383Z" fill="url(#F)" style="shape-rendering: geometricprecision; will-change: filter, mix-blend-mode, opacity, transform, content; filter: url(&quot;#drop-shadow-filter-0&quot;);"/></g></g><mask id="G" style="mask-type:alpha" maskUnits="userSpaceOnUse" x="87" y="67" width="3" height="4"><path d="M87.64 68.2c.507-.675 1.363-.889 1.911-.478.548.411.58 1.292.073 1.967-.508.675-1.364.889-1.912.478-.548-.412-.58-1.292-.073-1.967Z" fill="#202124"/></mask><g mask="url(#G)" transform="matrix(4.503999, 0, 0, 4.711312, -37.593724, -45.265946)" style="filter: url(&quot;#drop-shadow-filter-1&quot;); will-change: filter, mix-blend-mode, opacity, transform, content;"><path d="M89.72 68.247a.932.932 0 0 0-1.073-.587c.171.011.566.127.779.498.212.37-.057 1.057-.219 1.354l.29.12c.183-.206.484-.77.223-1.385Z" fill="url(#H)" style="shape-rendering: geometricprecision; will-change: filter, mix-blend-mode, opacity, transform, content; filter: url(&quot;#drop-shadow-filter-0&quot;);"/><g filter="url(#I)"><path d="M89.596 69.523c-.368.604-.955.865-1.23.904.539-.07 1.016-.283 1.364-.864.191-.32.22-.716.205-.992a.947.947 0 0 0-.01-.12 1.317 1.317 0 0 0-.028-.162c.006.046.019.098.028.162.004.036.008.077.01.12.004.195-.052.482-.339.952Z" fill="#D8D8D8" fill-opacity=".29" style="shape-rendering: geometricprecision; will-change: filter, mix-blend-mode, opacity, transform, content; filter: url(&quot;#drop-shadow-filter-0&quot;);"/></g></g><g opacity=".8" transform="matrix(4.503999, 0, 0, 4.711312, -37.593724, -45.265946)" style="filter: url(&quot;#drop-shadow-filter-1&quot;); will-change: filter, mix-blend-mode, opacity, transform, content;"><path d="M85.359 56.834c-.136-.228-.459-.321-.603-.34l-.141.188c.048.006.178.034.31.098.133.064.292.173.354.22l.08-.166Z" fill="#E2DCE1" style="shape-rendering: geometricprecision; will-change: filter, mix-blend-mode, opacity, transform, content; filter: url(&quot;#drop-shadow-filter-0&quot;);"/></g><g opacity=".8" transform="matrix(4.503999, 0, 0, 4.711312, -37.593724, -45.265946)" style="filter: url(&quot;#drop-shadow-filter-1&quot;); will-change: filter, mix-blend-mode, opacity, transform, content;"><path d="M89.603 68.904c.038.26-.145.529-.241.631l-.22-.059c.032-.034.112-.135.172-.265.06-.13.11-.312.128-.387l.16.08Z" fill="#E2DCE1" style="shape-rendering: geometricprecision; will-change: filter, mix-blend-mode, opacity, transform, content; filter: url(&quot;#drop-shadow-filter-0&quot;);"/></g><g opacity=".8" fill="#E2DCE1" transform="matrix(4.503999, 0, 0, 4.711312, -37.593724, -45.265946)" style="filter: url(&quot;#drop-shadow-filter-1&quot;); will-change: filter, mix-blend-mode, opacity, transform, content;"><path d="M84.386 58.31a5.615 5.615 0 0 1-.317-.312l-.237.001c.124.164.28.264.341.294l.213.018ZM85.445 58.35a1.21 1.21 0 0 0 .159-.138l-.083.03a.988.988 0 0 1-.204.154.27.27 0 0 0 .129-.045Z" style="shape-rendering: geometricprecision; will-change: filter, mix-blend-mode, opacity, transform, content; filter: url(&quot;#drop-shadow-filter-0&quot;);"/></g><g opacity=".8" fill="#E2DCE1" transform="matrix(4.503999, 0, 0, 4.711312, -37.593724, -45.265946)" style="filter: url(&quot;#drop-shadow-filter-1&quot;); will-change: filter, mix-blend-mode, opacity, transform, content;"><path d="M87.905 68.342a5.526 5.526 0 0 0-.05.443l-.186.148c-.007-.205.051-.38.081-.443l.155-.148ZM88.704 67.646c.064-.006.167.003.21.009l-.083.03a.97.97 0 0 0-.256.007.268.268 0 0 1 .129-.046Z" style="shape-rendering: geometricprecision; will-change: filter, mix-blend-mode, opacity, transform, content; filter: url(&quot;#drop-shadow-filter-0&quot;);"/></g><g opacity=".3" transform="matrix(4.503999, 0, 0, 4.711312, -37.593724, -45.265946)" style="filter: url(&quot;#drop-shadow-filter-1&quot;); will-change: filter, mix-blend-mode, opacity, transform, content;"><path d="M90.184 71.894c-3.038 1.072 1.085-5.089-.568-9.772-1.653-4.684-8.73-6.892-5.69-7.965 2.758-.035 6.589 2.381 8.242 7.065 1.652 4.683-.013 9.333-1.984 10.672Z" fill="url(#O)" fill-opacity=".4" style="shape-rendering: geometricprecision; will-change: filter, mix-blend-mode, opacity, transform, content; filter: url(&quot;#drop-shadow-filter-0&quot;);"/></g><g opacity=".2" transform="matrix(4.503999, 0, 0, 4.711312, -37.593724, -45.265946)" style="filter: url(&quot;#drop-shadow-filter-1&quot;); will-change: filter, mix-blend-mode, opacity, transform, content;"><path d="M90.184 71.894c-3.038 1.072 1.085-5.089-.568-9.772-1.653-4.684-8.73-6.892-5.69-7.965 2.758-.035 6.589 2.381 8.242 7.065 1.652 4.683-.013 9.333-1.984 10.672Z" fill="url(#Q)" fill-opacity=".4" style="shape-rendering: geometricprecision; will-change: filter, mix-blend-mode, opacity, transform, content; filter: url(&quot;#drop-shadow-filter-0&quot;);"/></g><path d="M 140.011 233.519 C 137.08 228.101 132.058 224.214 126.053 222.712 C 120.05 221.204 113.554 222.211 107.998 225.505 C 102.44 228.798 98.273 234.103 96.417 240.266 C 94.557 246.423 95.671 253.858 98.601 259.275 L 120.018 247.714 L 140.011 233.519 Z" fill="#4386F5" style="shape-rendering: geometricprecision; will-change: filter, mix-blend-mode, opacity, transform, content; filter: url(&quot;#drop-shadow-filter-0&quot;);"/><path fill-rule="evenodd" clip-rule="evenodd" d="M 139.818 233.185 C 170.814 286.865 235.704 309.833 292.413 284.481 L 311.344 330.821 C 232.241 366.18 141.822 334.12 98.578 259.242 L 139.814 233.19 L 139.818 233.185 Z" fill="url(#R)" style="shape-rendering: geometricprecision; will-change: filter, mix-blend-mode, opacity, transform, content; filter: url(&quot;#drop-shadow-filter-0&quot;);"/><path d="M 130.756 421.236 C 129.219 426.292 133.489 431.187 138.44 430.051 C 140.314 429.624 141.917 428.361 142.827 426.592 L 158.689 395.791 C 162.22 388.917 157.317 380.621 149.858 380.855 C 145.753 380.988 142.174 383.81 140.921 387.899 L 130.756 421.236 Z" fill="#034ECA" style="shape-rendering: geometricprecision; will-change: filter, mix-blend-mode, opacity, transform, content; filter: url(&quot;#drop-shadow-filter-0&quot;);"/><path d="M 130.756 421.236 C 129.219 426.292 133.489 431.187 138.44 430.051 C 140.314 429.624 141.917 428.361 142.827 426.592 L 158.689 395.791 C 162.22 388.917 157.317 380.621 149.858 380.855 C 145.753 380.988 142.174 383.81 140.921 387.899 L 130.756 421.236 Z" fill="url(#S)" style="shape-rendering: geometricprecision; will-change: filter, mix-blend-mode, opacity, transform, content; filter: url(&quot;#drop-shadow-filter-0&quot;);"/><path d="M 211.688 130.793 C 218.867 110.158 244.712 105.39 258.204 122.214 C 264.47 130.02 266.276 140.729 262.943 150.309 L 182.908 380.314 C 175.972 401.044 150.186 406.147 136.494 389.501 C 129.981 381.581 128.126 370.576 131.657 360.805 L 211.688 130.798 L 211.688 130.793 Z" fill="#4285F4" style="shape-rendering: geometricprecision; will-change: filter, mix-blend-mode, opacity, transform, content; filter: url(&quot;#drop-shadow-filter-0&quot;);"/><path d="M 155.236 398.938 C 167.611 400.251 179.263 392.606 183.521 380.375 L 248.531 193.543 C 252.274 182.788 249.485 170.736 241.459 162.957 L 155.236 398.938 Z" fill="url(#T)" style="shape-rendering: geometricprecision; will-change: filter, mix-blend-mode, opacity, transform, content; filter: url(&quot;#drop-shadow-filter-0&quot;);"/><path d="M 268.335 78.874 C 268.547 65.061 254.386 56.19 242.842 62.898 C 237.311 66.116 233.925 72.256 234.028 78.874 L 234.028 112.925 C 233.811 126.737 247.972 135.612 259.517 128.899 C 265.047 125.681 268.439 119.543 268.335 112.925 L 268.335 78.874 Z" fill="#4285F4" style="shape-rendering: geometricprecision; will-change: filter, mix-blend-mode, opacity, transform, content; filter: url(&quot;#drop-shadow-filter-0&quot;);"/><path d="M 268.335 78.874 C 268.547 65.061 254.386 56.19 242.842 62.898 C 237.311 66.116 233.925 72.256 234.028 78.874 L 234.028 112.925 C 233.811 126.737 247.972 135.612 259.517 128.899 C 265.047 125.681 268.439 119.543 268.335 112.925 L 268.335 78.874 Z" fill="url(#U)" style="shape-rendering: geometricprecision; will-change: filter, mix-blend-mode, opacity, transform, content; filter: url(&quot;#drop-shadow-filter-0&quot;);"/><g opacity=".5" transform="matrix(4.503999, 0, 0, 4.711312, -37.593724, -45.265946)" style="filter: url(&quot;#drop-shadow-filter-1&quot;); will-change: filter, mix-blend-mode, opacity, transform, content;"><path d="M71.662 81.487c-1.49.128.91-1.714.543-5.998-.247-2.89.76-5.335 2.249-5.462 1.489-.128 2.897 2.11 3.144 5 1.233 4.628-4.447 6.332-5.936 6.46Z" fill="#044FCB" style="shape-rendering: geometricprecision; will-change: filter, mix-blend-mode, opacity, transform, content; filter: url(&quot;#drop-shadow-filter-0&quot;);"/></g><path d="M 238.87 150.044 C 231.937 129.584 248.783 108.942 269.19 112.896 C 278.455 114.69 286.153 121.419 289.495 130.633 L 370.216 361.072 C 377.652 381.342 361.32 402.428 340.822 399.032 C 331.017 397.406 322.86 390.278 319.591 380.474 L 238.87 150.044 Z" fill="url(#W)" style="shape-rendering: geometricprecision; will-change: filter, mix-blend-mode, opacity, transform, content; filter: url(&quot;#drop-shadow-filter-0&quot;);"/><path d="M 229.628 121.663 C 219.458 124.362 211.223 132.151 207.64 142.464 L 131.768 360.404 C 127.144 373.69 131.768 388.06 141.661 394.495 L 229.623 121.663 L 229.628 121.663 Z" fill="url(#X)" style="shape-rendering: geometricprecision; will-change: filter, mix-blend-mode, opacity, transform, content; filter: url(&quot;#drop-shadow-filter-0&quot;);"/><path d="M 237.144 81.683 C 240.987 85.705 247.917 84.976 252.626 80.053 C 257.328 75.13 258.029 67.879 254.183 63.86 C 250.337 59.837 243.405 60.567 238.703 65.491 C 233.996 70.414 233.298 77.665 237.144 81.683 Z" fill="url(#Y)" fill-opacity=".9" style="shape-rendering: geometricprecision; will-change: filter, mix-blend-mode, opacity, transform, content; filter: url(&quot;#drop-shadow-filter-0&quot;);"/><path d="M 201.18 204.963 C 212.675 211.908 230.394 202.321 240.752 183.55 C 251.113 164.781 250.188 143.939 238.694 136.994 C 227.2 130.054 209.482 139.641 199.122 158.407 C 188.764 177.175 189.681 198.02 201.18 204.963 Z" fill="url(#Z)" fill-opacity=".9" style="shape-rendering: geometricprecision; will-change: filter, mix-blend-mode, opacity, transform, content; filter: url(&quot;#drop-shadow-filter-0&quot;);"/><path d="M 250.743 181.478 C 276.474 181.478 292.557 152.338 279.69 129.028 C 273.722 118.209 262.683 111.543 250.743 111.543 C 225.007 111.543 208.922 140.684 221.791 163.994 C 227.763 174.817 238.798 181.478 250.743 181.478 Z" fill="#fff" style="shape-rendering: geometricprecision; will-change: filter, mix-blend-mode, opacity, transform, content; filter: url(&quot;#drop-shadow-filter-0&quot;);"/><path fill-rule="evenodd" clip-rule="evenodd" d="M 250.743 120.744 C 231.78 120.744 219.926 142.219 229.406 159.396 C 233.807 167.368 241.942 172.276 250.743 172.276 C 269.704 172.276 281.554 150.808 272.073 133.629 C 267.673 125.658 259.542 120.744 250.743 120.744 Z M 208.517 146.51 C 208.517 112.509 243.703 91.261 271.852 108.259 C 284.92 116.151 292.967 130.732 292.967 146.51 C 292.967 180.512 257.777 201.764 229.628 184.762 C 216.567 176.875 208.517 162.292 208.517 146.51 Z" fill="#202124" style="shape-rendering: geometricprecision; will-change: filter, mix-blend-mode, opacity, transform, content; filter: url(&quot;#drop-shadow-filter-0&quot;);"/><text style="white-space: pre; fill: rgb(51, 51, 51); font-family: Arial, sans-serif; font-size: 28px;" x="232.481" y="406.245" transform="matrix(1.25658, 0, 0, 1.231751, -64.385659, -343.398655)">&lt;_ </text></svg>