<?xml version="1.0" standalone="no"?><!DOCTYPE svg PUBLIC "-//W3C//DTD SVG 1.1//EN" "http://www.w3.org/Graphics/SVG/1.1/DTD/svg11.dtd"><svg t="1748653115807" class="icon" viewBox="0 0 1024 1024" version="1.1" xmlns="http://www.w3.org/2000/svg" p-id="21081" xmlns:xlink="http://www.w3.org/1999/xlink" width="48" height="48"><path d="M798.927327 117.426394H223.237293a110.557757 110.557757 0 0 0-110.557756 110.557757v685.458092a110.557757 110.557757 0 0 0 110.557756 110.557757h576.479732a110.557757 110.557757 0 0 0 110.557757-110.557757V227.194453a110.557757 110.557757 0 0 0-111.347455-109.768059z m3.158793 704.410851h-358.523011a24.480646 24.480646 0 1 1 0-47.381896h358.523011a24.480646 24.480646 0 1 1 0 47.381896z m-2.211155-133.301067H552.06765a28.271198 28.271198 0 0 1-31.58793-24.006827 28.271198 28.271198 0 0 1 31.58793-24.006827h247.965255a28.271198 28.271198 0 0 1 31.58793 24.006827 28.271198 28.271198 0 0 1-31.58793 24.164767z m4.896129-133.301067H595.501055a24.164767 24.164767 0 1 1 0-47.381896h209.270039a24.164767 24.164767 0 1 1 0 47.381896z" fill="#3E80F9" p-id="21082"></path><path d="M370.594989 774.455349l-122.56117 60.490887a20.532155 20.532155 0 0 1-29.534715-17.057483l-8.844621-136.30192a20.532155 20.532155 0 0 1 2.684974-11.529594L590.289046 15.555318A20.532155 20.532155 0 0 1 618.086425 7.974215l131.247851 75.811033A20.532155 20.532155 0 0 1 757.073319 111.108808L379.123731 766.242487a20.532155 20.532155 0 0 1-8.528742 8.212862z" fill="#6DECBA" opacity=".8" p-id="21083"></path><path d="M526.481426 125.955136L598.501908 0.551051c1.105578-1.895276 9.950198 1.263517 19.742457 6.949345l131.247851 75.811033c9.792258 5.685827 16.899543 11.845474 15.793965 13.582811L693.265699 221.666565S526.165547 126.902773 526.481426 125.955136z" fill="#6DECBA" p-id="21084"></path></svg>