<?xml version="1.0" standalone="no"?><!DOCTYPE svg PUBLIC "-//W3C//DTD SVG 1.1//EN" "http://www.w3.org/Graphics/SVG/1.1/DTD/svg11.dtd"><svg t="1748652868925" class="icon" viewBox="0 0 1024 1024" version="1.1" xmlns="http://www.w3.org/2000/svg" p-id="9649" xmlns:xlink="http://www.w3.org/1999/xlink" width="48" height="48"><path d="M128 192m64 0l640 0q64 0 64 64l0 0q0 64-64 64l-640 0q-64 0-64-64l0 0q0-64 64-64Z" fill="#666666" p-id="9650"></path><path d="M128 448m64 0l640 0q64 0 64 64l0 0q0 64-64 64l-640 0q-64 0-64-64l0 0q0-64 64-64Z" fill="#666666" p-id="9651"></path><path d="M128 704m64 0l640 0q64 0 64 64l0 0q0 64-64 64l-640 0q-64 0-64-64l0 0q0-64 64-64Z" fill="#666666" p-id="9652"></path></svg>